<svg version="1.1" id="Layer_1" xmlns="http://www.w3.org/2000/svg" xmlns:xlink="http://www.w3.org/1999/xlink" x="0px" y="0px" viewBox="0 0 500 500" style="width: 188px;" xml:space="preserve" data-imageid="bug-fixing-1-43" imageName="Bug Fixing 1" class="illustrations_image">
<style type="text/css">
	.st0_bug-fixing-1-43{fill:#FF666D;}
	.st1_bug-fixing-1-43{opacity:0.5;fill:url(#SVGID_1_);enable-background:new    ;}
	.st2_bug-fixing-1-43{fill:#68E1FD;}
	.st3_bug-fixing-1-43{fill:#091B4D;}
	.st4_bug-fixing-1-43{fill:#C24327;}
	.st5_bug-fixing-1-43{opacity:0.5;fill:url(#SVGID_00000011012351058328986650000007066940300959754400_);enable-background:new    ;}
	.st6_bug-fixing-1-43{fill:#FFFFFF;}
	.st7_bug-fixing-1-43{fill:#843D0A;}
	.st8_bug-fixing-1-43{opacity:0.21;fill:url(#SVGID_00000162352671566629337730000008224189203328644789_);enable-background:new    ;}
	.st9_bug-fixing-1-43{fill:#EEAD97;}
	.st10_bug-fixing-1-43{fill:#8CC63F;}
	.st11_bug-fixing-1-43{fill:#AA2E1A;}
</style>
<path id="field_bug-fixing-1-43" class="st0_bug-fixing-1-43" d="M256.9,456.8L473,329c6.9-3.9,12.8-10.2,6.1-14.4l-216.9-125c-3.2-2-8.2-3.3-11.5-1.4L23.8,319.9&#10;&#9;c-6.9,4-8.1,15.2-1.2,19.2l205.8,117.5C237.2,461.7,248,461.8,256.9,456.8z"/>
<g id="bugs_bug-fixing-1-43">
	
		<linearGradient id="SVGID_1_-bug-fixing-1-43" gradientUnits="userSpaceOnUse" x1="370.5858" y1="862.8046" x2="443.6358" y2="806.4346" gradientTransform="matrix(1 0 0 1 0 -498)">
		<stop offset="0" style="stop-color:#FF666D;stop-opacity:0"/>
		<stop offset="1" style="stop-color:#091B4D"/>
	</linearGradient>
	<polygon class="st1_bug-fixing-1-43" points="399.3,317.7 344.4,353.7 374.1,377.3 451.6,333.6 &#9;"/>
	<path class="st2_bug-fixing-1-43 targetColor" d="M399.5,272v56.9c0,0,54.7,3,54.7,0V272" style="fill: rgb(70, 94, 253);"/>
	<ellipse class="st2_bug-fixing-1-43 targetColor" cx="426.8" cy="328.4" rx="27.3" ry="12.5" style="fill: rgb(70, 94, 253);"/>
	<ellipse class="st3_bug-fixing-1-43" cx="426.8" cy="272" rx="27.3" ry="12.5"/>
	<path class="st3_bug-fixing-1-43" d="M416.4,257.1l-4.5-2.7l-4,3.5c0,0-5-2.1-3.4-3.6c0.9-0.9,3.6,2.1,3.6,2.1l3.7-3.1l5.1,3.2L416.4,257.1z"/>
	<path class="st3_bug-fixing-1-43" d="M417,264.7l-5-3l-4.5,3.9c0,0-5.5-2.3-3.8-4c1-1,4,2.4,4,2.4l4.1-3.4l5.7,3.5L417,264.7z"/>
	<path class="st3_bug-fixing-1-43" d="M420,273.1l-5-3l-4.5,3.9c0,0-5.5-2.3-3.8-4c1-1,4,2.4,4,2.4l4.1-3.4l5.7,3.5L420,273.1z"/>
	<path class="st3_bug-fixing-1-43" d="M434,252.5l3-4.3l5.1,1.5c0,0,3.7-3.9,1.6-4.7c-1.2-0.4-2.4,3.4-2.4,3.4l-4.7-1.3l-3.4,5L434,252.5z"/>
	<path class="st3_bug-fixing-1-43" d="M437.1,260.7l3.4-4.8l5.6,1.7c0,0,4.1-4.4,1.8-5.2c-1.4-0.5-2.7,3.8-2.7,3.8l-5.2-1.4l-3.7,5.5L437.1,260.7z"/>
	<path class="st3_bug-fixing-1-43" d="M436.3,269.6l3.4-4.8l5.6,1.7c0,0,4.1-4.4,1.8-5.2c-1.3-0.5-2.7,3.8-2.7,3.8l-5.2-1.4l-3.8,5.5L436.3,269.6z"/>
	<path class="st4_bug-fixing-1-43" d="M423.9,241.8c-3.3,0.7-6.1,3-7.4,6.2c-2.1,4.9-2.7,10.4-1.8,15.6c0.8,5,3.4,10.8,8.2,13.2&#10;&#9;&#9;c11,5.6,17.8-8,16.1-17c-1-5.3-3.2-11.2-7-15.2C430,242.4,427,241.3,423.9,241.8z"/>
	<path class="st3_bug-fixing-1-43" d="M430.2,277.7c-1.2-10.7-2.9-21.4-5.2-32c0.8-0.2,1.6-0.4,2.3-0.8c1.4-0.7,2-2.4,1.3-3.8&#10;&#9;&#9;c-0.2-0.5-0.6-0.9-1.1-1.2c-1-0.7-2.2-1-3.4-0.9c-1.7,0.1-3.4,0.8-4.8,1.8c-0.8,0.6-1.3,1.5-1.4,2.5c0,0.2,0,0.4,0.1,0.5&#10;&#9;&#9;c0.6,2.1,3.3,2.4,5.8,2.1c2.2,10.5,3.9,21.1,5.1,31.8C429,278.6,430.2,278.5,430.2,277.7z"/>
	<path class="st3_bug-fixing-1-43" d="M403.6,270.4l-3-1l-1.9,2.6c0,0-3.2-0.5-2.4-1.6c0.4-0.6,2.4,0.8,2.4,0.8l1.8-2.3l3.4,1.2L403.6,270.4z"/>
	<path class="st3_bug-fixing-1-43" d="M404.9,274.7l-3.3-1.1l-2.1,2.8c0,0-3.5-0.6-2.7-1.8c0.5-0.7,2.6,0.9,2.6,0.9l2-2.5l3.8,1.3L404.9,274.7z"/>
	<path class="st3_bug-fixing-1-43" d="M407.8,279.2l-3.3-1.1l-2.1,2.8c0,0-3.5-0.6-2.7-1.8c0.5-0.7,2.6,0.9,2.6,0.9l2-2.5l3.8,1.3L407.8,279.2z"/>
	<path class="st3_bug-fixing-1-43" d="M413.2,265.4l1.2-2.9l3.1,0.2c0,0,1.6-2.8,0.3-2.9c-0.8-0.1-1,2.3-1,2.3L414,262l-1.3,3.3L413.2,265.4z"/>
	<path class="st3_bug-fixing-1-43" d="M416,269.8l1.4-3.2l3.5,0.2c0,0,1.8-3.1,0.4-3.2c-0.9-0.1-1,2.5-1,2.5L417,266l-1.5,3.7L416,269.8z"/>
	<path class="st3_bug-fixing-1-43" d="M416.7,275l1.3-3.2l3.5,0.2c0,0,1.8-3.1,0.4-3.2c-0.8-0.1-1,2.5-1,2.5l-3.2-0.2l-1.5,3.7L416.7,275z"/>
	<path class="st4_bug-fixing-1-43" d="M405.9,260.5c-1.8,0.9-3.2,2.6-3.5,4.6c-0.6,3.1-0.2,6.4,1,9.3c1.1,2.8,3.4,5.8,6.5,6.6&#10;&#9;&#9;c7.1,1.8,9.3-7,7.2-11.9c-1.3-2.9-3.3-6.1-6-7.9C409.6,260.1,407.6,259.8,405.9,260.5z"/>
	<path class="st3_bug-fixing-1-43" d="M414.2,280.6c-2.1-6.1-4.5-12-7.2-17.9c0.4-0.2,0.8-0.5,1.2-0.8c0.7-0.6,0.9-1.7,0.3-2.4&#10;&#9;&#9;c-0.2-0.2-0.5-0.4-0.8-0.5c-0.7-0.3-1.4-0.3-2.1-0.1c-1,0.3-1.9,0.9-2.5,1.7c-0.4,0.4-0.6,1.1-0.5,1.6c0,0.1,0.1,0.2,0.1,0.3&#10;&#9;&#9;c0.6,1.1,2.2,1,3.6,0.5c2.7,5.8,5,11.8,7.1,17.8C413.7,281.2,414.4,281,414.2,280.6z"/>
	<path class="st3_bug-fixing-1-43" d="M416.8,318.6l-3,0.7l-0.3,3.1c0,0-3,1.2-2.9-0.2c0-0.8,2.4-0.5,2.4-0.5l0.3-2.9l3.5-0.7V318.6z"/>
	<path class="st3_bug-fixing-1-43" d="M420.2,321.6l-3.4,0.8l-0.3,3.5c0,0-3.3,1.3-3.3-0.2c0-0.9,2.7-0.6,2.7-0.6l0.4-3.2l3.9-0.8L420.2,321.6z"/>
	<path class="st3_bug-fixing-1-43" d="M425,324l-3.4,0.8l-0.3,3.5c0,0-3.3,1.3-3.3-0.2c0-0.9,2.7-0.6,2.7-0.6l0.4-3.2l3.9-0.8L425,324z"/>
	<path class="st3_bug-fixing-1-43" d="M422.5,309.4l-0.5-3.1l2.8-1.4c0,0,0-3.2-1.2-2.7c-0.7,0.3,0.4,2.5,0.4,2.5l-2.5,1.3l0.6,3.5L422.5,309.4z"/>
	<path class="st3_bug-fixing-1-43" d="M427.2,311.6l-0.5-3.4l3.1-1.6c0,0,0-3.6-1.4-3c-0.8,0.3,0.4,2.7,0.4,2.7l-2.9,1.6l0.7,3.9L427.2,311.6z"/>
	<path class="st3_bug-fixing-1-43" d="M430.5,315.8l-0.5-3.4l3.1-1.6c0,0,0-3.6-1.4-3c-0.8,0.4,0.4,2.7,0.4,2.7l-2.8,1.5l0.7,3.9L430.5,315.8z"/>
	<path class="st4_bug-fixing-1-43" d="M413.8,308.9c-1.1,1.7-1.4,3.8-0.6,5.7c1.1,3,3.1,5.5,5.7,7.4c2.4,1.8,5.9,3.2,8.9,2.3&#10;&#9;&#9;c7.1-2.1,4.4-10.8,0-13.9c-2.6-1.9-6-3.5-9.2-3.6C416.6,306.7,414.8,307.5,413.8,308.9z"/>
	<path class="st3_bug-fixing-1-43" d="M431.2,321.8c-4.9-4.1-10.1-8-15.4-11.6c0.3-0.4,0.5-0.8,0.6-1.3c0.3-0.9-0.1-1.8-1-2.2&#10;&#9;&#9;c-0.3-0.1-0.6-0.1-0.9-0.1c-0.7,0.1-1.4,0.5-1.9,1c-0.7,0.8-1.1,1.7-1.3,2.8c-0.1,0.6,0,1.2,0.4,1.7c0.1,0.1,0.2,0.1,0.2,0.2&#10;&#9;&#9;c1.1,0.7,2.4-0.3,3.3-1.5c5.3,3.6,10.4,7.4,15.3,11.5C431.1,322.6,431.6,322.1,431.2,321.8z"/>
	<path class="st3_bug-fixing-1-43" d="M436.6,270.9l-2.7-1.6l-2.4,2.1c0,0-3-1.2-2-2.1c0.6-0.5,2.1,1.3,2.1,1.3l2.2-1.8l3,1.9L436.6,270.9z"/>
	<path class="st3_bug-fixing-1-43" d="M436.9,275.4l-3-1.8l-2.6,2.3c0,0-3.3-1.4-2.2-2.4c0.6-0.6,2.4,1.4,2.4,1.4l2.5-2l3.4,2.1L436.9,275.4z"/>
	<path class="st3_bug-fixing-1-43" d="M438.7,280.5l-3-1.8l-2.6,2.3c0,0-3.3-1.4-2.2-2.4c0.6-0.6,2.4,1.4,2.4,1.4l2.5-2l3.4,2.1L438.7,280.5z"/>
	<path class="st3_bug-fixing-1-43" d="M447,268.2l1.8-2.5l3,0.9c0,0,2.2-2.3,1-2.8c-0.7-0.2-1.4,2-1.4,2l-2.8-0.8l-2,3L447,268.2z"/>
	<path class="st3_bug-fixing-1-43" d="M448.9,273l2-2.8l3.4,1c0,0,2.5-2.6,1.1-3.1c-0.8-0.3-1.6,2.2-1.6,2.2l-3.1-0.9l-2.2,3.3L448.9,273z"/>
	<path class="st3_bug-fixing-1-43" d="M448.4,278.3l2-2.8l3.4,1c0,0,2.5-2.6,1.1-3.1c-0.8-0.3-1.6,2.2-1.6,2.2l-3.1-0.9L448,278L448.4,278.3z"/>
	<path class="st4_bug-fixing-1-43" d="M441,261.8c-2,0.4-3.6,1.8-4.4,3.7c-1.2,2.9-1.6,6.2-1.1,9.3c0.5,3,2,6.4,4.9,7.8c6.6,3.4,10.6-4.7,9.6-10.1&#10;&#9;&#9;c-0.6-3.1-1.9-6.7-4.1-9C444.6,262.2,442.8,261.5,441,261.8z"/>
	<path class="st3_bug-fixing-1-43" d="M444.7,283.2c-0.7-6.4-1.7-12.7-3.1-19c0.5-0.1,0.9-0.3,1.4-0.5c0.9-0.4,1.2-1.4,0.8-2.2&#10;&#9;&#9;c-0.1-0.3-0.4-0.6-0.7-0.8c-0.6-0.4-1.3-0.6-2-0.5c-1,0.1-2,0.5-2.9,1.1c-0.5,0.3-0.8,0.9-0.9,1.5c0,0.1,0,0.2,0,0.3&#10;&#9;&#9;c0.3,1.2,2,1.4,3.5,1.2c1.3,6.3,2.4,12.6,3.1,18.9C444,283.7,444.8,283.7,444.7,283.2z"/>
</g>
<g id="monitor_bugs_bug-fixing-1-43">
	<g id="monitor_bug-fixing-1-43">
		
			<linearGradient id="SVGID_00000086668989829270825170000017451806988576619426_-bug-fixing-1-43" gradientUnits="userSpaceOnUse" x1="125.9323" y1="845.5601" x2="198.9723" y2="789.1901" gradientTransform="matrix(1 0 0 1 0 -498)">
			<stop offset="0" style="stop-color:#FF666D;stop-opacity:0"/>
			<stop offset="1" style="stop-color:#091B4D"/>
		</linearGradient>
		
			<polygon style="opacity:0.5;fill:url(#SVGID_00000086668989829270825170000017451806988576619426_);enable-background:new    ;" points="&#10;&#9;&#9;&#9;154.6,300.5 99.7,336.4 129.4,360 207,316.4 &#9;&#9;"/>
		<path class="st3_bug-fixing-1-43" d="M226.3,258.1l31.4,15.1c3.6,1.7,5.1,6,3.4,9.6c-0.6,1.3-1.6,2.4-2.9,3.1l-74.4,43.4c-3.4,2-7.7,0.9-9.7-2.3&#10;&#9;&#9;&#9;L156,298.9"/>
		<path class="st2_bug-fixing-1-43 targetColor" d="M55.4,185.3L305.9,41.1c5.4-3.1,12.3-1.3,15.4,4.1c1,1.7,1.5,3.7,1.5,5.6v150.1c0,3.4-1.8,6.5-4.7,8.1&#10;&#9;&#9;&#9;l-267,154.1c-2.9,1.7-6.6,0.7-8.3-2.2c-0.5-0.9-0.8-2-0.8-3V208.4C42,198.9,47.1,190.1,55.4,185.3z" style="fill: rgb(70, 94, 253);"/>
		<path class="st6_bug-fixing-1-43" d="M305.8,52.4L63,192.1c-5.3,3-8.5,8.7-8.5,14.8v112.5c0,3.4,2.8,6.1,6.2,6.1c1.1,0,2.1-0.3,3.1-0.8&#10;&#9;&#9;&#9;l247.6-142.1c1.9-1.1,3.1-3.1,3-5.3v-120c0-3.2-2.6-5.7-5.7-5.7C307.7,51.7,306.7,51.9,305.8,52.4z"/>
		<ellipse transform="matrix(0.1891 -0.982 0.982 0.1891 -87.8757 410.8887)" class="st3_bug-fixing-1-43" cx="204.8" cy="258.7" rx="6" ry="5.3"/>
		<path class="st3_bug-fixing-1-43" d="M176.1,179.4l-5-6.2l-7.5,2.9c0,0-6-5.6-2.9-7c1.8-0.8,4,4.9,4,4.9l6.9-2.5l5.6,7.2L176.1,179.4z"/>
		<path class="st3_bug-fixing-1-43" d="M172.9,190.7l-5.6-6.9L159,187c0,0-6.6-6.2-3.2-7.8c2-0.9,4.4,5.5,4.4,5.5l7.7-2.8l6.2,8.1L172.9,190.7z"/>
		<path class="st3_bug-fixing-1-43" d="M172.8,204.5l-5.6-6.9l-8.3,3.2c0,0-6.6-6.2-3.2-7.8c2-0.9,4.4,5.5,4.4,5.5l7.7-2.8l6.2,8.1L172.8,204.5z"/>
		<path class="st3_bug-fixing-1-43" d="M203.4,182.1l6.6-4.6l6.4,4.9c0,0,7.3-3.7,4.7-5.9c-1.5-1.3-5.2,3.6-5.2,3.6l-5.9-4.3l-7.4,5.4L203.4,182.1z"/>
		<path class="st3_bug-fixing-1-43" d="M203.5,195.5l7.3-5.1l7.1,5.4c0,0,8.1-4.1,5.3-6.6c-1.7-1.4-5.8,4.1-5.8,4.1l-6.6-4.8l-8.2,6L203.5,195.5z"/>
		<path class="st3_bug-fixing-1-43" d="M197.6,207.9l7.3-5.1l7.1,5.4c0,0,8.1-4.1,5.3-6.5c-1.7-1.4-5.8,4.1-5.8,4.1L205,201l-8.2,6L197.6,207.9z"/>
		<path class="st4_bug-fixing-1-43" d="M194.7,161.4c-4.6-0.8-9.7,0.9-13.7,5.1c-5.5,5.8-9.2,13.8-10.7,21.6c-1.5,7.7-0.8,17.3,4.7,23.3&#10;&#9;&#9;&#9;c12.7,13.9,29.4-2.1,31.7-16c1.4-8.1,1.4-17.8-1.9-25.6C202.6,164.9,198.9,162.1,194.7,161.4z"/>
		<path class="st3_bug-fixing-1-43" d="M184.7,216.4c3.9-16.1,7.1-32.4,9.4-48.8c1.2,0.2,2.4,0.2,3.6,0c3.5-0.6,4.9-4,3-7c-1-1.5-2.6-2.7-4.4-3.1&#10;&#9;&#9;&#9;c-2.5-0.7-5.2-0.7-7.7,0.1c-1.5,0.4-2.7,1.5-3.3,2.9c-0.1,0.3-0.2,0.5-0.2,0.8c-0.3,3.3,3.4,5.2,7.1,6&#10;&#9;&#9;&#9;c-2.4,16.3-5.5,32.5-9.4,48.6C182.6,217,184.4,217.6,184.7,216.4z"/>
		
			<rect x="137.3" y="184.4" transform="matrix(0.3697 -0.9292 0.9292 0.3697 -51.7588 293.4208)" class="st7_bug-fixing-1-43" width="106.2" height="1"/>
		<path class="st3_bug-fixing-1-43" d="M86.9,263.4l-2.7-2.2l-3,1.9c0,0-3.1-1.9-1.9-2.8c0.7-0.5,2.2,1.8,2.2,1.8l2.8-1.7l3.1,2.6L86.9,263.4z"/>
		<path class="st3_bug-fixing-1-43" d="M86.6,268.6l-3-2.5l-3.3,2.1c0,0-3.4-2.1-2.1-3.1c0.8-0.6,2.4,2,2.4,2l3.1-1.9l3.4,2.9L86.6,268.6z"/>
		<path class="st3_bug-fixing-1-43" d="M87.8,274.6l-3-2.5l-3.3,2.1c0,0-3.4-2.1-2.1-3.1c0.8-0.6,2.4,2,2.4,2l3.1-1.9l3.4,2.9L87.8,274.6z"/>
		<path class="st3_bug-fixing-1-43" d="M99.1,262.1l2.4-2.6l3.2,1.5c0,0,2.8-2.3,1.5-3c-0.8-0.4-1.9,2.1-1.9,2.1l-3-1.3l-2.7,3L99.1,262.1z"/>
		<path class="st3_bug-fixing-1-43" d="M100.3,267.9l2.7-2.9l3.6,1.7c0,0,3.2-2.5,1.7-3.3c-0.8-0.5-2.1,2.3-2.1,2.3l-3.3-1.5l-3,3.3L100.3,267.9z"/>
		<path class="st3_bug-fixing-1-43" d="M98.9,273.8l2.7-2.9l3.6,1.7c0,0,3.2-2.5,1.7-3.3c-0.8-0.5-2.1,2.3-2.1,2.3l-3.3-1.5l-3,3.4L98.9,273.8z"/>
		<path class="st4_bug-fixing-1-43" d="M93.4,253.8c-2.3,0.2-4.4,1.4-5.5,3.4c-1.9,3.1-2.8,6.7-2.7,10.3c0,3.5,1.2,7.6,4.1,9.7&#10;&#9;&#9;&#9;c6.7,4.9,12.6-3.6,12.3-9.8c-0.1-3.7-1-7.9-3.1-10.9C97.4,254.9,95.5,253.8,93.4,253.8z"/>
		<path class="st3_bug-fixing-1-43" d="M94,278.7c0.3-7.4,0.2-14.7-0.3-22c0.5,0,1.1-0.1,1.6-0.3c1-0.4,1.6-1.5,1.2-2.6c-0.1-0.3-0.3-0.5-0.5-0.7&#10;&#9;&#9;&#9;c-0.6-0.6-1.3-0.9-2.2-1c-1.2-0.1-2.3,0.2-3.4,0.8c-0.6,0.3-1,0.9-1.2,1.6c0,0.1,0,0.2,0,0.4c0.2,1.5,2,2,3.6,2&#10;&#9;&#9;&#9;c0.4,7.3,0.5,14.6,0.3,21.9C93.2,279.1,94,279.2,94,278.7z"/>
		<path class="st3_bug-fixing-1-43" d="M288.2,100.7l3.5-0.8l0.3-3.6c0,0,3.4-1.3,3.3,0.2c0,0.9-2.7,0.6-2.7,0.6l-0.3,3.2l-4,0.8L288.2,100.7z"/>
		<path class="st3_bug-fixing-1-43" d="M284.3,97.3l3.8-0.9l0.3-4c0,0,3.8-1.5,3.7,0.2c0,1-3,0.7-3,0.7l-0.4,3.6l-4.4,0.9V97.3z"/>
		<path class="st3_bug-fixing-1-43" d="M278.8,94.6l3.8-0.9l0.3-4c0,0,3.8-1.5,3.7,0.2c0,1-3,0.7-3,0.7l-0.4,3.6l-4.4,0.9V94.6z"/>
		<path class="st3_bug-fixing-1-43" d="M281.9,111.1l0.6,3.5l-3.2,1.6c0,0,0.1,3.6,1.5,3c0.8-0.3-0.5-2.8-0.5-2.8l2.9-1.5l-0.8-4L281.9,111.1z"/>
		<path class="st3_bug-fixing-1-43" d="M276.5,108.6l0.6,3.9l-3.5,1.8c0,0,0.1,4,1.6,3.3c0.9-0.4-0.5-3.1-0.5-3.1l3.2-1.7l-0.8-4.4L276.5,108.6z"/>
		<path class="st3_bug-fixing-1-43" d="M272.7,103.9l0.6,3.9l-3.5,1.8c0,0,0.1,4,1.6,3.4c0.9-0.4-0.5-3.1-0.5-3.1l3.2-1.7l-0.8-4.4L272.7,103.9z"/>
		<path class="st4_bug-fixing-1-43" d="M291.9,111.6c1.3-1.9,1.5-4.3,0.6-6.5c-1.4-3.4-3.7-6.3-6.6-8.4c-2.8-2.1-6.8-3.6-10.2-2.6&#10;&#9;&#9;&#9;c-8,2.4-4.8,12.2,0.3,15.8c3,2.1,6.9,4,10.6,4.1C288.7,114.2,290.6,113.3,291.9,111.6z"/>
		<path class="st3_bug-fixing-1-43" d="M271.7,97.1c5.7,4.7,11.6,9,17.8,13.1c-0.3,0.4-0.5,0.9-0.7,1.4c-0.3,1.1,0.3,2.2,1.3,2.5&#10;&#9;&#9;&#9;c0.3,0.1,0.6,0.1,0.9,0.1c0.8-0.1,1.6-0.5,2.1-1.2c0.8-0.9,1.3-2,1.4-3.1c0.1-0.7-0.1-1.4-0.5-1.9c-0.1-0.1-0.2-0.2-0.3-0.2&#10;&#9;&#9;&#9;c-1.3-0.7-2.7,0.4-3.8,1.7c-6.1-4.1-12-8.4-17.6-13C271.9,96.1,271.3,96.8,271.7,97.1z"/>
	</g>
	<path class="st7_bug-fixing-1-43" d="M184,237.2c-4.7,0-9.3-0.9-13.7-2.6c-22.5-9-32-38.6-21.1-66c5.3-13.3,14.5-24.1,25.9-30.4s23.8-7.5,34.7-3.1&#10;&#9;&#9;s19.2,13.6,23.2,26.1s3.2,26.6-2,39.9l-0.5-0.2l0.5,0.2c-5.3,13.3-14.5,24.1-25.9,30.4C198.7,235.2,191.4,237.1,184,237.2z&#10;&#9;&#9; M196.1,133.4c-7.2,0.1-14.3,2-20.6,5.6c-11.2,6.2-20.3,16.8-25.5,29.9c-10.7,26.9-1.5,56,20.5,64.7c10.6,4.2,22.7,3.1,33.9-3.1&#10;&#9;&#9;s20.3-16.8,25.5-29.9s5.9-27,2-39.2s-11.9-21.3-22.5-25.5C205.2,134.3,200.7,133.4,196.1,133.4L196.1,133.4z"/>
</g>
<g id="person_bug-fixing-1-43">
	
		<linearGradient id="SVGID_00000037651991382675203760000009655118554023740070_-bug-fixing-1-43" gradientUnits="userSpaceOnUse" x1="208.4162" y1="905.0413" x2="169.4962" y2="926.1513" gradientTransform="matrix(1 0 0 1 0 -498)">
		<stop offset="4.000000e-02" style="stop-color:#843D0A"/>
		<stop offset="1" style="stop-color:#FF666D;stop-opacity:0"/>
	</linearGradient>
	<path style="opacity:0.21;fill:url(#SVGID_00000037651991382675203760000009655118554023740070_);enable-background:new    ;" d="&#10;&#9;&#9;M288.3,387.5l-24.4-15.1l-114.8,38.9c0,0,31.9,17.7,50.2,28.6C211,433.4,263.9,398.5,288.3,387.5z"/>
	<path class="st9_bug-fixing-1-43" d="M233.3,183.7c0,0-5.8-4.8-6.6-7.5s-2-6.4-3.6-5.8s0.3,5.8,0.3,5.8s-7.2-5.5-8.6-4.5s4.4,5.2,4.4,5.2&#10;&#9;&#9;s-8.4-5-9.4-3.1s7.6,5.9,7.6,5.9s-7.6-3.7-7.3-1.3c0.2,1.5,8,5.2,8,5.2s-6.1,0.6-4.2,1.9s6.9,1.1,6.9,1.1s8.6,5.7,15.8,6.4"/>
	<path class="st9_bug-fixing-1-43" d="M207.2,203.7c-1.6-0.2-11.5-4.9-12.6-6.4s-4-11.2-6.1-10.5s2.3,9.5,1.1,9.7s-14.7,0-15.3,1.6s6.7,2,6.7,2&#10;&#9;&#9;s-9.1-0.7-7.8,1.7s10.3,1.9,10.3,1.9s-9.2,1.9-7.8,3.6s10.1-1.1,10.1-1.1s-6.5,4.5-4.2,5.5s9-3.8,9.8-3.7s16,7,16,7"/>
	<path class="st4_bug-fixing-1-43" d="M242,384.5c-0.1,0.8-0.8,1.5-1.6,1.5c-1.5,0.1-15.6-5.9-19,2.3c-0.4,1,0,2.2,0.9,2.8c7,4.5,14.9,7.4,23.1,8.4&#10;&#9;&#9;c2.8,0.6,5.7,0.2,8.3-1l-0.7-15.4L242,384.5z"/>
	<path class="st4_bug-fixing-1-43" d="M276,377.3c0,0-13.2-8.6-15.5-3.1c-1.8,4.2,14,16.5,19.8,17.4s6.6-5.1,6.6-5.1l-0.2-10"/>
	<path class="st10_bug-fixing-1-43" d="M250.2,252.3c0,0-13.2,28.4-13,131c0,0,2.7,7.1,21.7,2.2l7.7-91.6l3.3,84.5c0,0,9,6.6,22.9-1.3&#10;&#9;&#9;c0,0-3.1-113.1-10.7-133.4"/>
	<path class="st11_bug-fixing-1-43" d="M279.2,192.1c0,0-27-4-37.7-8.9l-10.7-4.9c0,0-6.1,7-4.9,14.3s33.4,18,48.7,18"/>
	<path class="st4_bug-fixing-1-43" d="M282.9,247.2c3.3-14,10.1-50,2.8-55.5c-6.4-4.8-21.1,0.4-32.4,8c-9.3,6.3-5.5,42.7-3.9,55.4&#10;&#9;&#9;C261.6,256.5,273.1,254.4,282.9,247.2z"/>
	<path class="st4_bug-fixing-1-43" d="M253.2,199.7c0,0-27,3.4-38.7,1.6l-11.7-1.9c0,0-4,8.3-0.9,15.1s37,8.4,51.7,4.3"/>
	<path class="st9_bug-fixing-1-43" d="M255.1,171.2c0,0-0.3,18.6,4.9,19c5.2,0.4,8.3-1.8,10.1-5.3"/>
	<path class="st9_bug-fixing-1-43" d="M262.6,187.9v8.8c0,0,4.7,1.8,11.4-2.6V187"/>
	<path class="st4_bug-fixing-1-43" d="M256.1,174.7c0,0-6.3-6.5-2.2-12.1c4.1-5.6,8.7-2.7,8.7-2.7s1-2.4,5.8-2.9s6.8,4.4,8.7,5.6s5.1,4.8,5.3,7.7&#10;&#9;&#9;s-4.1,19.4-9.2,20.6S261.7,194.1,256.1,174.7z"/>
</g>
</svg>